<svg width="198" height="54" viewBox="0 0 198 54" fill="none" xmlns="http://www.w3.org/2000/svg">
<path d="M20.1409 19.3435C23.3359 23.8984 23.3359 30.2403 20.1409 34.7952L22.8536 37.734L27.4506 32.7537C30.348 29.6148 30.348 24.5258 27.4506 21.3869L22.8536 16.4066L20.1409 19.3454V19.3435Z" fill="#FFB020"/>
<path d="M28.2251 10.5852C32.4295 14.0466 38.2834 14.0466 42.4878 10.5852L45.2005 13.5241L40.6034 18.5044C37.7061 21.6433 33.0086 21.6433 30.1112 18.5044L25.5142 13.5241L28.2269 10.5852H28.2251Z" fill="#DC64F7"/>
<path d="M50.5723 34.7952C47.3773 30.2403 47.3773 23.8984 50.5723 19.3435L47.8596 16.4046L43.2625 21.3849C40.3651 24.5238 40.3651 29.6129 43.2625 32.7518L47.8596 37.7321L50.5723 34.7932V34.7952Z" fill="#00D3AE"/>
<path d="M42.4876 43.5534C38.2832 40.092 32.4293 40.092 28.2249 43.5534L25.5122 40.6145L30.1093 35.6342C33.0066 32.4953 37.7041 32.4953 40.6015 35.6342L45.1985 40.6145L42.4858 43.5534H42.4876Z" fill="#FF5A3A"/>
<path d="M16.39 29.6575C17.7099 29.6575 18.7799 28.4983 18.7799 27.0683C18.7799 25.6384 17.7099 24.4791 16.39 24.4791C15.07 24.4791 14 25.6384 14 27.0683C14 28.4983 15.07 29.6575 16.39 29.6575Z" fill="#FFB020"/>
<path d="M35.3557 9.11094C36.6756 9.11094 37.7456 7.95171 37.7456 6.52173C37.7456 5.09175 36.6756 3.93253 35.3557 3.93253C34.0357 3.93253 32.9657 5.09175 32.9657 6.52173C32.9657 7.95171 34.0357 9.11094 35.3557 9.11094Z" fill="#DC64F7"/>
<path d="M35.3557 50.2061C36.6756 50.2061 37.7456 49.0469 37.7456 47.6169C37.7456 46.1869 36.6756 45.0277 35.3557 45.0277C34.0357 45.0277 32.9657 46.1869 32.9657 47.6169C32.9657 49.0469 34.0357 50.2061 35.3557 50.2061Z" fill="#FF5A3A"/>
<path d="M54.323 29.6575C55.6429 29.6575 56.7129 28.4983 56.7129 27.0683C56.7129 25.6384 55.6429 24.4791 54.323 24.4791C53.003 24.4791 51.933 25.6384 51.933 27.0683C51.933 28.4983 53.003 29.6575 54.323 29.6575Z" fill="#00D3AE"/>
<path d="M23.7319 23.9488C22.1416 25.6717 22.1416 28.4649 23.7319 30.1878L26.7745 33.484L27.4505 32.7517C30.3478 29.6128 30.3478 24.5238 27.4505 21.3849L26.7745 20.6526L23.7319 23.9488Z" fill="#3E3EAF"/>
<path d="M32.4761 14.4758L29.4335 17.7721L30.1094 18.5043C33.0068 21.6432 37.7042 21.6432 40.6016 18.5043L41.2775 17.7721L38.2349 14.4758C36.6446 12.7529 34.0664 12.7529 32.4761 14.4758Z" fill="#3E3EAF"/>
<path d="M43.9384 20.6526L43.2625 21.3849C40.3651 24.5238 40.3651 29.6128 43.2625 32.7517L43.9384 33.484L46.981 30.1878C48.5714 28.4649 48.5714 25.6717 46.981 23.9488L43.9384 20.6526Z" fill="#3E3EAF"/>
<path d="M30.1094 35.6342L29.4335 36.3665L32.4761 39.6628C34.0664 41.3857 36.6446 41.3857 38.2349 39.6628L41.2775 36.3665L40.6016 35.6342C37.7042 32.4953 33.0068 32.4953 30.1094 35.6342Z" fill="#3E3EAF"/>
<path d="M72.7129 17.2175H75.4955V24.8336C76.5641 23.4079 78.1042 22.5455 79.9671 22.5455C83.5189 22.5455 86.2029 25.6397 86.2029 29.7304C86.2029 33.8211 83.5206 36.9173 79.9671 36.9173C78.1042 36.9173 76.5641 36.0568 75.4955 34.6291V36.5948H72.7129V17.2175ZM83.3198 29.7324C83.3198 27.3102 81.656 25.4533 79.4202 25.4533C77.1844 25.4533 75.4955 27.3102 75.4955 29.7324C75.4955 32.1545 77.1844 34.0114 79.4202 34.0114C81.656 34.0114 83.3198 32.1545 83.3198 29.7324Z" fill="white"/>
<path d="M88.5391 32.7741V17.2195H91.3217V32.1021C91.3217 33.0985 91.8936 33.689 92.8134 33.689H93.5826V36.5948H92.4154C89.882 36.5948 88.5409 35.2488 88.5409 32.7722L88.5391 32.7741Z" fill="white"/>
<path d="M94.3411 29.7323C94.3411 25.6417 97.2474 22.5474 101.124 22.5474C105 22.5474 107.906 25.6417 107.906 29.7323C107.906 33.823 104.975 36.9192 101.124 36.9192C97.2725 36.9192 94.3411 33.8249 94.3411 29.7323ZM105.023 29.7323C105.023 27.3102 103.359 25.4532 101.124 25.4532C98.8879 25.4532 97.199 27.3102 97.199 29.7323C97.199 32.1545 98.8879 34.0114 101.124 34.0114C103.359 34.0114 105.023 32.1545 105.023 29.7323Z" fill="white"/>
<path d="M109.459 29.7323C109.459 25.6417 112.365 22.5474 116.242 22.5474C119.546 22.5474 122.155 24.8084 122.675 28.0386H119.718C119.272 26.5041 117.904 25.4552 116.24 25.4552C114.004 25.4552 112.315 27.3121 112.315 29.7343C112.315 32.1564 114.004 34.0134 116.24 34.0134C117.904 34.0134 119.272 32.9645 119.718 31.43H122.675C122.153 34.6602 119.544 36.9211 116.242 36.9211C112.367 36.9211 109.459 33.8269 109.459 29.7343V29.7323Z" fill="white"/>
<path d="M125.002 17.2175H127.784V29.1671L133.325 22.8699H136.851L131.412 28.9787L137.05 36.5948H133.473L129.473 31.1853L127.784 33.0966V36.5948H125.002V17.2175Z" fill="white"/>
<path d="M137.278 32.5585H140.109C140.109 33.6074 141.029 34.3066 142.37 34.3066C143.612 34.3066 144.432 33.687 144.432 32.8265C144.432 30.35 137.475 31.7233 137.475 26.8518C137.475 24.1868 139.439 22.5455 142.244 22.5455C145.05 22.5455 147.064 24.2412 147.064 26.7177H144.233C144.233 25.7757 143.413 25.1308 142.221 25.1308C141.029 25.1308 140.283 25.696 140.283 26.5293C140.283 28.9243 147.263 27.6054 147.263 32.5041C147.263 35.1691 145.3 36.9172 142.345 36.9172C139.39 36.9172 137.276 35.1399 137.276 32.5566L137.278 32.5585Z" fill="white"/>
<path d="M150.743 32.6129V25.6145H148.606V22.8699H149.897C150.542 22.8699 150.89 22.493 150.89 21.7938V19.156H153.524V22.8699H157.673V25.6145H153.524V32.3157C153.524 33.2306 154.096 33.823 154.965 33.823C155.835 33.823 156.405 33.1762 156.405 32.1001H158.89C158.89 34.8447 157.3 36.5948 154.766 36.5948C152.233 36.5948 150.743 35.0079 150.743 32.6109V32.6129Z" fill="white"/>
<path d="M159.958 29.7323C159.958 25.6417 162.617 22.5474 166.194 22.5474C168.057 22.5474 169.597 23.4079 170.641 24.8356V22.8718H173.423V32.4264C173.423 33.2073 173.847 33.6909 174.591 33.6909H174.815V36.5967H174.02C172.281 36.5967 171.189 35.8431 170.816 34.4174C169.748 35.9791 168.134 36.9211 166.196 36.9211C162.619 36.9211 159.96 33.8269 159.96 29.7343L159.958 29.7323ZM170.641 29.7323C170.641 27.3102 168.977 25.4532 166.741 25.4532C164.505 25.4532 162.816 27.3102 162.816 29.7323C162.816 32.1545 164.48 34.0114 166.741 34.0114C169.002 34.0114 170.641 32.1545 170.641 29.7323Z" fill="white"/>
<path d="M176.957 22.8699H179.74V25.158C180.733 23.5983 182.2 22.6562 183.987 22.6562H184.434V25.7504H183.987C181.305 25.7504 179.74 27.3918 179.74 29.9227V36.5968H176.957V22.8718V22.8699Z" fill="white"/>
</svg>
