<svg width="43" height="48" viewBox="0 0 43 48" fill="none" xmlns="http://www.w3.org/2000/svg">
<rect width="43" height="48" fill="#191935"/>
<g id="dashbaord" clip-path="url(#clip0_112_2218)">
<rect width="1440" height="1280" transform="translate(-14 -21)" fill="#2C2C4F"/>
<g id="Nav">
<g clip-path="url(#clip1_112_2218)">
<mask id="path-1-inside-1_112_2218" fill="white">
<path d="M-14 -21H212V1259H-14V-21Z"/>
</mask>
<g id="blockstar_logo-primary_RGB 1">
<g id="Frame 5">
<g id="Group">
<path id="Vector" d="M6.14087 16.3435C9.33586 20.8984 9.33586 27.2403 6.14087 31.7952L8.85357 34.734L13.4506 29.7537C16.348 26.6148 16.348 21.5258 13.4506 18.3869L8.85357 13.4066L6.14087 16.3454V16.3435Z" fill="#FFB020"/>
<path id="Vector_2" d="M14.2251 7.58524C18.4295 11.0466 24.2834 11.0466 28.4878 7.58524L31.2005 10.5241L26.6034 15.5044C23.7061 18.6433 19.0086 18.6433 16.1112 15.5044L11.5142 10.5241L14.2269 7.58524H14.2251Z" fill="#DC64F7"/>
<path id="Vector_3" d="M36.5723 31.7952C33.3773 27.2403 33.3773 20.8984 36.5723 16.3435L33.8596 13.4046L29.2625 18.3849C26.3651 21.5238 26.3651 26.6129 29.2625 29.7518L33.8596 34.7321L36.5723 31.7932V31.7952Z" fill="#00D3AE"/>
<path id="Vector_4" d="M28.4876 40.5534C24.2832 37.092 18.4293 37.092 14.2249 40.5534L11.5122 37.6145L16.1093 32.6342C19.0066 29.4953 23.7041 29.4953 26.6015 32.6342L31.1985 37.6145L28.4858 40.5534H28.4876Z" fill="#FF5A3A"/>
<path id="Vector_5" d="M2.38997 26.6575C3.70991 26.6575 4.77994 25.4983 4.77994 24.0683C4.77994 22.6384 3.70991 21.4791 2.38997 21.4791C1.07003 21.4791 0 22.6384 0 24.0683C0 25.4983 1.07003 26.6575 2.38997 26.6575Z" fill="#FFB020"/>
<path id="Vector_6" d="M21.3557 6.11094C22.6756 6.11094 23.7456 4.95171 23.7456 3.52173C23.7456 2.09175 22.6756 0.932526 21.3557 0.932526C20.0357 0.932526 18.9657 2.09175 18.9657 3.52173C18.9657 4.95171 20.0357 6.11094 21.3557 6.11094Z" fill="#DC64F7"/>
<path id="Vector_7" d="M21.3557 47.2061C22.6756 47.2061 23.7456 46.0469 23.7456 44.6169C23.7456 43.1869 22.6756 42.0277 21.3557 42.0277C20.0357 42.0277 18.9657 43.1869 18.9657 44.6169C18.9657 46.0469 20.0357 47.2061 21.3557 47.2061Z" fill="#FF5A3A"/>
<path id="Vector_8" d="M40.323 26.6575C41.6429 26.6575 42.7129 25.4983 42.7129 24.0683C42.7129 22.6384 41.6429 21.4791 40.323 21.4791C39.003 21.4791 37.933 22.6384 37.933 24.0683C37.933 25.4983 39.003 26.6575 40.323 26.6575Z" fill="#00D3AE"/>
<path id="Vector_9" d="M9.73193 20.9488C8.1416 22.6717 8.1416 25.4649 9.73193 27.1878L12.7745 30.484L13.4505 29.7517C16.3478 26.6128 16.3478 21.5238 13.4505 18.3849L12.7745 17.6526L9.73193 20.9488Z" fill="#3E3EAF"/>
<path id="Vector_10" d="M18.4761 11.4758L15.4335 14.7721L16.1094 15.5043C19.0068 18.6432 23.7042 18.6432 26.6016 15.5043L27.2775 14.7721L24.2349 11.4758C22.6446 9.75293 20.0664 9.75293 18.4761 11.4758Z" fill="#3E3EAF"/>
<path id="Vector_11" d="M29.9384 17.6526L29.2625 18.3849C26.3651 21.5238 26.3651 26.6128 29.2625 29.7517L29.9384 30.484L32.981 27.1878C34.5714 25.4649 34.5714 22.6717 32.981 20.9488L29.9384 17.6526Z" fill="#3E3EAF"/>
<path id="Vector_12" d="M16.1094 32.6342L15.4335 33.3665L18.4761 36.6628C20.0664 38.3857 22.6446 38.3857 24.2349 36.6628L27.2775 33.3665L26.6016 32.6342C23.7042 29.4953 19.0068 29.4953 16.1094 32.6342Z" fill="#3E3EAF"/>
</g>
</g>
</g>
</g>
<path d="M211 -21V1259H213V-21H211Z" fill="#475467" fill-opacity="0.5" mask="url(#path-1-inside-1_112_2218)"/>
</g>
</g>
<defs>
<clipPath id="clip0_112_2218">
<rect width="1440" height="1280" fill="white" transform="translate(-14 -21)"/>
</clipPath>
<clipPath id="clip1_112_2218">
<path d="M-14 -21H212V1259H-14V-21Z" fill="white"/>
</clipPath>
</defs>
</svg>
